<?xml version="1.0" encoding="UTF-8" standalone="no"?>
<!-- Created with Inkscape (http://www.inkscape.org/) -->

<svg
   xmlns:dc="http://purl.org/dc/elements/1.1/"
   xmlns:cc="http://creativecommons.org/ns#"
   xmlns:rdf="http://www.w3.org/1999/02/22-rdf-syntax-ns#"
   xmlns:svg="http://www.w3.org/2000/svg"
   xmlns="http://www.w3.org/2000/svg"
   xmlns:sodipodi="http://sodipodi.sourceforge.net/DTD/sodipodi-0.dtd"
   xmlns:inkscape="http://www.inkscape.org/namespaces/inkscape"
   width="48"
   height="48"
   viewBox="0 0 48 48.000001"
   id="svg4793"
   version="1.1"
   inkscape:version="0.92.2 5c3e80d, 2017-08-06"
   sodipodi:docname="dash-left.svg">
  <defs
     id="defs4795" />
  <sodipodi:namedview
     id="base"
     pagecolor="#ffffff"
     bordercolor="#666666"
     borderopacity="1.0"
     inkscape:pageopacity="0.0"
     inkscape:pageshadow="2"
     inkscape:zoom="8"
     inkscape:cx="26.283301"
     inkscape:cy="43.771086"
     inkscape:document-units="px"
     inkscape:current-layer="layer1"
     showgrid="false"
     units="px"
     inkscape:snap-bbox="true"
     inkscape:bbox-paths="true"
     inkscape:bbox-nodes="true"
     inkscape:snap-bbox-edge-midpoints="true"
     inkscape:window-width="1280"
     inkscape:window-height="713"
     inkscape:window-x="0"
     inkscape:window-y="27"
     inkscape:window-maximized="1">
    <inkscape:grid
       type="xygrid"
       id="grid5349" />
  </sodipodi:namedview>
  <metadata
     id="metadata4798">
    <rdf:RDF>
      <cc:Work
         rdf:about="">
        <dc:format>image/svg+xml</dc:format>
        <dc:type
           rdf:resource="http://purl.org/dc/dcmitype/StillImage" />
        <dc:title />
      </cc:Work>
    </rdf:RDF>
  </metadata>
  <g
     inkscape:label="Ebene 1"
     inkscape:groupmode="layer"
     id="layer1"
     transform="translate(0,-1004.3622)">
    <path
       style="display:inline;opacity:0.81;fill:#161a26;fill-opacity:1;stroke:none;stroke-width:2;stroke-linecap:round;stroke-linejoin:miter;stroke-miterlimit:4;stroke-dasharray:none;stroke-dashoffset:0;stroke-opacity:1"
       d="M 0 0 L 0 1 L 45 1 C 46.108 1 47 1.892 47 3 L 47 45 C 47 46.108 46.108 47 45 47 L 0 47 L 0 48 L 46 48 C 47.108 48 48 47.108 48 46 L 48 2 C 48 0.892 47.108 0 46 0 L 0 0 z "
       transform="translate(0,1004.3622)"
       id="rect4749-1" />
    <path
       style="display:inline;opacity:0.95;fill:#353945;fill-opacity:1;stroke:none;stroke-width:2;stroke-linecap:round;stroke-linejoin:miter;stroke-miterlimit:4;stroke-dasharray:none;stroke-dashoffset:0;stroke-opacity:1"
       d="m 45,1005.3622 c 1.108,0 2,0.892 2,2 l 0,42 c 0,1.108 -0.892,2 -2,2 l -45,0 0,-46 z"
       id="rect4749-48"
       inkscape:connector-curvature="0"
       sodipodi:nodetypes="csscccc" />
    <path
       style="fill:#4d4d4d;fill-opacity:1;fill-rule:nonzero;stroke:none;stroke-width:0.125;stroke-opacity:1"
       d="M 0.00830151,47.492409 V 47.055902 L 22.874146,47.023659 45.73999,46.991414 46.092896,46.72992 c 0.194098,-0.143821 0.479468,-0.447453 0.634155,-0.674735 l 0.28125,-0.413243 V 24.029221 c 0,-23.73365264 0.05904,-21.9628637 -0.755101,-22.6479178 -0.213994,-0.1800643 -0.482324,-0.3273895 -0.596289,-0.3273895 -0.113965,0 -0.01121,0.1041531 0.22834,0.2314514 0.239553,0.1272982 0.562113,0.4168667 0.7168,0.6434853 l 0.28125,0.412034 V 23.991414 45.641942 l -0.283741,0.424737 c -0.156059,0.233603 -0.479496,0.523085 -0.71875,0.643291 -0.409371,0.205674 -1.77397,0.218566 -23.153759,0.21875 L 0.00830151,46.928914 V 23.991751 1.0545875 L 22.727051,1.0226616 45.445801,0.99073569 22.727051,0.95982469 0.00830151,0.92891368 v -0.4375 -0.4375 H 23.200781 c 22.823743,0 23.20015,0.003913 23.674904,0.24611425 0.265333,0.13536284 0.600591,0.43731475 0.74502,0.67100425 l 0.262596,0.42489002 v 22.6230098 22.62301 l -0.28125,0.412035 c -0.154687,0.226619 -0.477247,0.516187 -0.7168,0.643485 -0.41941,0.222875 -1.296006,0.231452 -23.65625,0.231452 H 0.00830151 Z"
       id="path815"
       inkscape:connector-curvature="0"
       transform="translate(0,1004.3622)" />
    <path
       style="fill:#373737;fill-opacity:0.94402987;fill-rule:nonzero;stroke:none;stroke-width:0.125;stroke-opacity:1"
       d="m 0.00830151,47.492725 v -0.438138 l 22.71874949,-0.03193 22.71875,-0.03193 -22.71875,-0.03091 -22.71874949,-0.03091 V 23.99187 1.0548259 L 16.664551,1.0226599 33.320801,0.9904938 16.664551,0.9597038 0.00830151,0.9289138 V 0.49043978 0.05196587 l 23.34374949,0.03222391 23.34375,0.0322239 0.408137,0.29110479 c 0.224475,0.16010764 0.505725,0.46948264 0.625,0.68750003 0.203547,0.3720542 0.216863,1.7780249 0.216863,22.8963955 0,22.275188 -0.0025,22.504241 -0.25,22.924433 -0.1375,0.233439 -0.408807,0.542814 -0.602906,0.6875 l -0.352906,0.263067 -23.365844,0.03222 -23.36584349,0.03222 z M 45.944916,46.805345 c 0.04379,-0.07086 -0.0064,-0.09181 -0.117622,-0.04913 -0.216553,0.0831 -0.256174,0.172695 -0.07637,0.172695 0.06469,0 0.15199,-0.05561 0.193992,-0.123569 z m 0.500885,-0.376431 c 0.124437,-0.1375 0.198123,-0.25 0.163748,-0.25 -0.03438,0 -0.164311,0.1125 -0.288748,0.25 -0.124436,0.1375 -0.198122,0.25 -0.163747,0.25 0.03437,0 0.164311,-0.1125 0.288747,-0.25 z m 0.549705,-1.117642 c -0.01176,-0.294078 -0.02023,-0.288755 -0.105052,0.06605 -0.05074,0.212251 -0.133531,0.465376 -0.183975,0.5625 -0.05044,0.09712 -0.0032,0.0674 0.105052,-0.06605 0.108224,-0.133452 0.191013,-0.386577 0.183975,-0.5625 z M 46.633301,1.7607872 c 0,-0.02372 -0.126562,-0.1502821 -0.28125,-0.28125 l -0.28125,-0.2381235 0.238124,0.28125 c 0.223778,0.2643056 0.324376,0.3381551 0.324376,0.2381235 z"
       id="path817"
       inkscape:connector-curvature="0"
       transform="translate(0,1004.3622)" />
  </g>
</svg>
